# xmcd
#
# Track frame offsets: 
#        150
#        12059
#        22084
#        39485
#        57037
#        68389
#        86240
#        101812
#        119034
#        130906
#        144886
#        162887
#        177799
#        193852
#        215574
#        234445
#        251997
#
# Disc length: 3499 seconds
#
# Revision: 0
# Processed by: cddbd v1.5.2PL0 Copyright (c) Steve Scherf et al.
# Submitted via: ExactAudioCopy v0.99pb5
#
DISCID=ee0da911
DTITLE=Various Artist - Country - Gold Metal Box - CD 1
DYEAR=2009
DGENRE=Country Pop
TTITLE0=Carter Family - Ring of fire
TTITLE1=Charley Pride - Is anybody goin' to San Antone
TTITLE2=Poco - Good feeling to know
TTITLE3=Joe Diffie - Bigger than the Beatles
TTITLE4=Jim Reeves - Adios amigo
TTITLE5=Tractors - Baby likes to rock it
TTITLE6=Alabama - Down home
TTITLE7=J.D. Souther - You're only lonely
TTITLE8=Johnny Paycheck - Take this job and shove it
TTITLE9=Dolly Parton - I will always love you
TTITLE10=John Anderson - Seminole wind
TTITLE11=Vince Gill - Oh Carolina
TTITLE12=Willie Nelson - Always on my mind
TTITLE13=Michael Murphey - Wildfire
TTITLE14=Lorrie Morgan - I guess you had to be there
TTITLE15=Charlie Daniels Band - Behind your eyes
TTITLE16=Kris Kristofferson - Help me make it through the night
EXTD=
EXTT0=
EXTT1=
EXTT2=
EXTT3=
EXTT4=
EXTT5=
EXTT6=
EXTT7=
EXTT8=
EXTT9=
EXTT10=
EXTT11=
EXTT12=
EXTT13=
EXTT14=
EXTT15=
EXTT16=
PLAYORDER=
